<?xml version="1.0" encoding="utf-8"?>
<!-- Generator: Adobe Illustrator 24.0.1, SVG Export Plug-In . SVG Version: 6.00 Build 0)  -->
<svg version="1.1" xmlns="http://www.w3.org/2000/svg" xmlns:xlink="http://www.w3.org/1999/xlink" x="0px" y="0px"
	 viewBox="0 0 114.48 116" style="enable-background:new 0 0 114.48 116;" xml:space="preserve">
<style type="text/css">
	.st0{fill-rule:evenodd;clip-rule:evenodd;fill:#FFF8F3;}
	.st1{fill:#1D262D;}
	.st2{fill:#F7CFB2;}
	.st3{fill:#F99D9A;}
	.st4{fill:#FFF5EE;}
	.st5{fill:#FFE3E3;stroke:#262A53;stroke-width:2;stroke-miterlimit:10;}
	.st6{fill:#FFA0A0;}
	.st7{font-family:'Lobster1.4';}
	.st8{font-size:59.2183px;}
	.st9{fill:#262A53;}
</style>
<g id="Background">
	<rect x="-1295.16" y="-285" class="st0" width="500" height="500"/>
</g>
<g id="Objects">
	<g>
		<text transform="matrix(1 0 0 1 -579.947 -34.7185)"><tspan x="0" y="0" class="st6 st7" style="font-size:82.1843px;">Toy</tspan><tspan x="113.41" y="0" class="st9 st7" style="font-size:82.1843px;">Galore</tspan></text>
	</g>
	<g>
		<path class="st1" d="M-572.4-77.65c-4.48-3.5-7.51-0.21-9.41,1.1c-5.84-18.24-20.44-28.78-38.19-30.1
			c-24.57-1.82-45.96,16.66-47.79,41.29c-0.2,2.75-0.14,5.45,0.14,8.09c-1.64-0.07-6.33,0.15-7.88,4.74
			c-1.89,5.59,0.56,11.17,6.29,13.4c2.87,1.12,5.5,0.51,7.41-0.38c7.15,12.26,20,20.91,35.21,22.04
			c23.74,1.76,44.52-15.44,47.54-38.83c1.75-0.16,6.2-1.46,9.07-5.07C-566.37-65.96-567.57-73.87-572.4-77.65z"/>
		<g>
			<g>
				<g>
					<path class="st2" d="M-582.79-72.3c1.48-1.84,4.34-5.79,9.39-2.72c6.31,3.83,1.87,18.46-8.19,16.16
						C-581.24-63.51-581.67-68.04-582.79-72.3L-582.79-72.3z"/>
					<path class="st3" d="M-581.48-61.55c0.02-1.46-0.06-2.94-0.19-4.38c0.85-1.53,2.18-3.41,3.86-3.84
						c2.86-0.73,4.55,4.98,0.76,7.05C-579.03-61.64-580.51-61.44-581.48-61.55L-581.48-61.55z"/>
				</g>
				<g>
					<path class="st2" d="M-664.36-55.36c-3.16-0.23-8.83,0.11-9.6,5.46c-0.98,6.61,6.62,10.78,13.92,7.48
						C-662.15-46.41-663.63-50.76-664.36-55.36L-664.36-55.36z"/>
					<path class="st3" d="M-663.5-51.3c-1.4-0.47-3.1-0.63-4.4,0.5c-2.61,2.25,1.03,7.16,6.91,6.41
						C-662.05-46.61-662.88-48.9-663.5-51.3L-663.5-51.3z"/>
				</g>
			</g>
			<g>
				<path class="st2" d="M-626.28-20.38c22.93,1.7,42.99-15.59,44.69-38.49c1.7-22.9-15.59-42.96-38.52-44.66
					c-22.9-1.7-42.96,15.59-44.66,38.49C-666.47-42.15-649.18-22.08-626.28-20.38L-626.28-20.38z"/>
				<g>
					<path class="st1" d="M-646.29-98.66c7.48-4.88,24.27-9.37,27.99,2.17c3.49,10.92-8.44,14.61-8.44,14.61s2.45-3.73,0.25-7.95
						c-2.16-4.19-8.35-5.99-8.35-5.99s1.98,2.1,1.01,5.27c-0.97,3.17-6.7,3.87-6.7,3.87s1.75-3.38,0.41-7.12
						C-641-96.25-644.18-97.83-646.29-98.66L-646.29-98.66z"/>
					<g>
						<g>
							<g>
								<path class="st1" d="M-642.46-55.05c2.95,0.22,5.55-2,5.77-4.95c0.22-2.95-2.03-5.56-4.98-5.77
									c-2.95-0.22-5.53,2.03-5.74,4.98C-647.62-57.85-645.4-55.27-642.46-55.05L-642.46-55.05z"/>
								<path class="st1" d="M-604.28-65.01c2.95,0.22,5.55-2,5.77-4.95c0.22-2.95-2.03-5.56-4.98-5.77
									c-2.95-0.22-5.53,2.03-5.74,4.98C-609.45-67.81-607.22-65.23-604.28-65.01L-604.28-65.01z"/>
							</g>
						</g>
						<g>
							<path class="st3" d="M-597.34-45.41c4.98,0.37,9.35-3.4,9.72-8.38c0.37-5.01-3.4-9.38-8.38-9.75
								c-4.98-0.37-9.38,3.4-9.75,8.41C-606.11-50.15-602.32-45.78-597.34-45.41L-597.34-45.41z"/>
							<path class="st3" d="M-640.57-32.68c5.01,0.37,9.38-3.4,9.75-8.38c0.37-4.98-3.4-9.35-8.41-9.72
								c-4.98-0.37-9.35,3.4-9.72,8.38C-649.32-37.42-645.55-33.05-640.57-32.68L-640.57-32.68z"/>
						</g>
						<path class="st1" d="M-624.2-41.85c-0.17-0.56,0.15-1.15,0.71-1.35c0.56-0.17,1.18,0.15,1.35,0.71
							c1.18,3.81,3.53,5.58,5.92,5.88c1.09,0.14,2.17-0.02,3.18-0.41c1.04-0.38,1.97-1.01,2.7-1.82c1.73-1.86,2.45-4.67,1.05-7.92
							c-0.23-0.54-0.01-1.16,0.53-1.43c0.57-0.23,1.19,0.03,1.42,0.56c1.83,4.14,0.82,7.82-1.4,10.25
							c-0.99,1.03-2.21,1.85-3.53,2.36c-1.32,0.51-2.77,0.71-4.19,0.51C-619.65-34.88-622.72-37.1-624.2-41.85L-624.2-41.85z"/>
					</g>
				</g>
			</g>
		</g>
		<g>
			<path class="st1" d="M-592.59-29.4c0,0-1.33-7.7-7.16-7.23c-5.83,0.47-11.92,11.78-11.92,11.78s-12.42-5.81-17.07-2.9
				c-4.65,2.91-2.56,13.75,1.43,17.3c3.99,3.55,6.21,2.9,8.61,2.27c2.4-0.64,9.41-9.71,9.41-9.71s10.01,4.09,13.99,1.67
				C-591.31-18.62-592.1-27.55-592.59-29.4z"/>
			<path class="st3" d="M-611.1-22.03c0,0-14.29-7.35-16.6-1.75c-2.28,5.63,1.49,14.52,6.81,13.58c5.32-0.95,11.11-9.8,11.11-9.8
				s12.19,4.39,14.93,0.01c2.77-4.37,0.12-15.14-4.74-13.94C-604.48-32.75-611.1-22.03-611.1-22.03L-611.1-22.03z"/>
		</g>
		<g>
			<path class="st4" d="M-611.84-91.7c0,0-3.07-4.66,1.36-5.81c4.43-1.15,14.93,7.95,14.85,11.54c-0.08,3.6-4.19,4.22-7.29,2.41
				C-606.03-85.36-610.25-89.46-611.84-91.7z"/>
			<path class="st4" d="M-589.8-78.99c-0.13,1.76-1.67,3.09-3.43,2.96c-1.76-0.13-3.09-1.67-2.96-3.43
				c0.13-1.76,1.67-3.09,3.43-2.96C-590.99-82.29-589.67-80.75-589.8-78.99z"/>
		</g>
	</g>
	<g>
		<circle class="st5" cx="57.18" cy="58" r="48.54"/>
		<text transform="matrix(1 0 0 1 25.8224 76.5051)"><tspan x="0" y="0" class="st6 st7 st8">T</tspan><tspan x="28.48" y="0" class="st9 st7 st8">G</tspan></text>
	</g>
</g>
<g id="Designed_by_Freepik">
</g>
</svg>
